<svg data-v-0dd9719b="" version="1.0" xmlns="http://www.w3.org/2000/svg" xmlns:xlink="http://www.w3.org/1999/xlink" width="100%" height="100%" viewBox="0 0 340.000000 250.000000" preserveAspectRatio="xMidYMid meet" color-interpolation-filters="sRGB" style="margin: auto;"> <rect data-v-0dd9719b="" x="0" y="0" width="100%" height="100%" fill="#fff" fill-opacity="1" class="background"></rect> <rect data-v-0dd9719b="" x="0" y="0" width="100%" height="100%" fill="url(#watermark)" fill-opacity="1" class="watermarklayer"></rect> <g data-v-0dd9719b="" fill="#333" class="icon-text-wrapper icon-svg-group iconsvg" transform="translate(49.77000427246094,93.51385498046875)"><g class="iconsvg-imagesvg" transform="translate(0,0)"><g><rect fill="#333" fill-opacity="0" stroke-width="2" x="0" y="0" width="60" height="62.97229219143577" class="image-rect"></rect> <svg x="0" y="0" width="60" height="62.97229219143577" filtersec="colorsb277870048" class="image-svg-svg primary" style="overflow: visible;"><svg xmlns="http://www.w3.org/2000/svg" viewBox="-0.0007152557373046875 -0.20985813438892365 171.05104064941406 179.52415466308594"><path d="M156.49 48c-.44 1.21-1.73 1.54-2.72 2.11q-13.47 7.78-27 15.48c-12.35 7.07-24.74 14-37 21.28-3.08 1.83-5.35 1.64-8.4-.13-19.8-11.58-39.76-22.88-59.67-34.27-1.82-1-3.52-2.3-5.4-3.19s-1.85-1.86-.3-2.78q10.22-6.14 20.54-12.06c1.38-.8 2.72-.18 4 .58 13.92 8.11 27.89 16.14 41.76 24.31 2.36 1.39 4.18 1.52 6.64.07 13.87-8.17 27.87-16.13 41.78-24.24 1.8-1 3.37-1.41 5.24-.28 6.23 3.75 12.49 7.45 18.75 11.16.76.45 1.62.77 1.78 1.96z" fill="#106ba0"></path><path d="M91.28 138.47c0-12.27.08-24.54-.07-36.81a5.35 5.35 0 0 1 3-5.32Q108.6 88.2 123 80l34.7-19.89c.87-.49 1.72-1 2.62-1.43 1.41-.65 2.42-.4 2.42 1.39v22.55c0 2-1.67 2.78-3.07 3.58-8.21 4.73-16.47 9.39-24.7 14.09-5.74 3.27-11.4 6.66-17.2 9.81a5 5 0 0 0-2.84 5c.09 15.92 0 31.83.11 47.75 0 2.68-.78 4.36-3.07 5.63-6.07 3.36-12.09 6.81-18.09 10.28-2.4 1.39-2.62-.06-2.62-1.86V158z" fill="#f6bb24"></path><path d="M80.41 138.64v36.81c0 3.89-.43 4.24-3.91 2.42-5.85-3.05-11.57-6.36-17.35-9.55-2-1.1-2.48-2.79-2.47-5 0-15.81-.06-31.61.08-47.42a6.05 6.05 0 0 0-3.45-6.07C40 102.39 26.9 94.71 13.61 87.32c-3.36-1.87-5-3.93-4.78-8 .39-5.94.06-11.93.12-17.9 0-3.12.62-3.47 3.18-2q28.49 16.2 56.94 32.45c2.77 1.59 5.56 3.16 8.39 4.65 2.18 1.15 3 2.74 3 5.32-.13 12.26-.05 24.53-.05 36.8z" fill="#f96806"></path><path d="M22.63 153.77c-12.38.54-22.73-10.11-22.63-23a22.59 22.59 0 0 1 23.13-22.64 23.41 23.41 0 0 1 23.12 22.78c.47 12.49-11.95 23.8-23.62 22.86z" fill="#f96806"></path><path d="M108.56 23.25a22.9 22.9 0 1 1-45.79-.18 22.9 22.9 0 1 1 45.79.18z" fill="#106ba0"></path><path d="M148.19 108.57c12.14-.88 22.79 10.15 22.86 22.58s-11.61 22.55-22.38 22.68c-10.94.13-23.21-10.58-23.2-22.43.01-12.4 10.97-23.73 22.72-22.83z" fill="#fdba0e"></path></svg></svg> <!----></g></g> <g transform="translate(67,10.046144485473633)"><g data-gra="path-name" fill-rule="" class="tp-name iconsvg-namesvg"><g transform="scale(1)"><g><path d="M30.24 0L12.96-31.07 12.96 0 4.32 0 4.32-42.38 15.88-42.38 32.72-10.8 32.72-42.38 41.3-42.38 41.3 0 30.24 0ZM68.56-42.63L68.56-42.63Q74.91-42.63 79.74-40.47L79.74-40.47Q85.39-37.87 87.68-31.77L87.68-31.77Q89.46-27 89.46-20.59L89.46-20.59Q89.46-14.11 87.3-9.34L87.3-9.34Q84.57-3.69 78.91-1.4L78.91-1.4Q74.72 0.25 69.26 0.25L69.26 0.25Q62.08 0.25 56.8-2.41L56.8-2.41Q52.35-4.64 50-9.4 47.65-14.17 47.65-20.97L47.65-20.97Q47.65-33.1 53.69-38.25L53.69-38.25Q58.77-42.57 68.56-42.63ZM68.62-35.52L68.62-35.52Q62.39-35.52 59.72-31.45L59.72-31.45Q57.56-28.27 57.56-21.22L57.56-21.22Q57.56-13.79 60.23-10.29L60.23-10.29Q62.9-6.86 68.68-6.86L68.68-6.86Q74.27-6.86 76.91-10.36 79.55-13.85 79.55-21.16L79.55-21.16Q79.55-27.83 77.39-31.32L77.39-31.32Q74.91-35.45 68.62-35.52ZM119.26 0L95.81 0 95.81-42.38 119.77-42.38Q125.42-42.38 127.96-41.04L127.96-41.04Q130.95-39.58 132.47-36.15L132.47-36.15Q133.55-33.8 133.55-31.26L133.55-31.26Q133.55-27.96 131.81-25.1 130.06-22.24 127.39-21.16L127.39-21.16Q133.55-18.36 133.55-11.18L133.55-11.18Q133.55-7.05 131.58-4.26L131.58-4.26Q129.87-1.84 127.2-0.92 124.53 0 119.26 0L119.26 0ZM104.84-34.82L104.84-24.97 117.1-24.97Q119.07-24.97 119.93-25.16 120.78-25.35 121.61-25.99L121.61-25.99Q123.58-27.51 123.58-30.18L123.58-30.18Q123.58-32.72 121.74-33.93L121.74-33.93Q120.4-34.82 117.29-34.82L117.29-34.82 104.84-34.82ZM104.84-17.41L104.84-7.56 117.1-7.56Q119.07-7.56 119.96-7.75 120.85-7.94 121.61-8.58L121.61-8.58Q123.58-10.1 123.58-12.77L123.58-12.77Q123.58-15.31 121.74-16.52L121.74-16.52Q120.4-17.41 117.29-17.41L117.29-17.41 104.84-17.41ZM161.26 0L139.97 0 139.97-7.56 159.35-7.56Q163.99-7.56 165.51-8.45L165.51-8.45Q167.74-9.78 167.74-12.45L167.74-12.45Q167.74-15.57 165.13-16.96L165.13-16.96Q163.67-17.79 160.43-17.79L160.43-17.79 152.55-17.79Q145.37-17.79 142.2-20.4L142.2-20.4Q140.23-22.05 139.11-24.53 138-27 138-29.86L138-29.86Q138-34.31 140.61-38L140.61-38Q143.15-41.55 148.74-42.19L148.74-42.19Q150.65-42.38 154.39-42.38L154.39-42.38 175.43-42.38 175.43-34.82 156.43-34.82Q152.17-34.75 150.77-34.44L150.77-34.44Q147.91-33.74 147.91-30.12L147.91-30.12Q147.91-27.07 150.33-26.05L150.33-26.05Q151.92-25.29 155.67-25.29L155.67-25.29 162.46-25.29Q167.67-25.29 170.22-24.4L170.22-24.4Q174.73-22.87 176.44-19.06L176.44-19.06Q177.78-16.01 177.78-12.52L177.78-12.52Q177.78-8.64 176-5.59L176-5.59Q173.52-1.27 168.56-0.38L168.56-0.38Q166.15 0 161.26 0L161.26 0Z" transform="translate(-4.320000171661377, 42.630001068115234)"></path></g> <!----> <!----> <!----> <!----> <!----> <!----> <!----></g></g> <!----></g></g><defs v-gra="od"></defs></svg>